<svg width="35" height="22" viewBox="0 0 35 22" fill="none" xmlns="http://www.w3.org/2000/svg">
<rect x="0.5" y="0.5" width="34" height="21" rx="0.5" fill="white" stroke="black"/>
<line x1="13.5" y1="5.0943" x2="21.25" y2="5.0943" stroke="#00A1FF" stroke-linecap="round"/>
<line x1="8.5" y1="7.5" x2="25.5" y2="7.5" stroke="#00A1FF" stroke-linecap="round"/>
<path d="M6.91016 2.5H28.098C28.178 3.28002 28.449 4.25452 29.0492 5.10157C29.7377 6.07326 30.843 6.85045 32.5 6.98075V15.0277C31.7298 15.1101 30.7704 15.3867 29.9369 15.9965C28.9779 16.6981 28.2161 17.8206 28.0898 19.5H6.902C6.822 18.72 6.55102 17.7455 5.95082 16.8984C5.26232 15.9267 4.15704 15.1495 2.5 15.0192V6.97228C3.27018 6.8899 4.22964 6.61329 5.06309 6.00353C6.02208 5.30192 6.78389 4.17938 6.91016 2.5Z" stroke="black"/>
<line x1="8.5" y1="9.49429" x2="25.5" y2="9.4943" stroke="#00A1FF" stroke-linecap="round"/>
<circle cx="11.5" cy="14.5629" r="3" stroke="black"/>
<path d="M10.0321 15C9.70404 12.6456 12 13.0221 12 13.0221" stroke="black" stroke-linecap="round"/>
<path d="M12.9679 14C13.296 16.3544 11 15.9779 11 15.9779" stroke="black" stroke-linecap="round"/>
<path d="M19.4062 13.1719C19.4062 13.3633 19.2559 13.5 19.0781 13.5C18.8867 13.5 18.75 13.3633 18.75 13.1719V12.625C18.75 11.9004 19.3242 11.3125 20.0625 11.3125C20.7871 11.3125 21.375 11.9004 21.375 12.625V12.7344C21.375 13.0488 21.3477 13.3496 21.3066 13.6504L23.125 13.0898C23.248 13.0488 23.3848 13.0762 23.4668 13.1719C23.5488 13.2539 23.5762 13.3906 23.5352 13.5137L23.1523 14.5938H24.5469C24.7246 14.5938 24.875 14.7441 24.875 14.9219C24.875 15.1133 24.7246 15.25 24.5469 15.25H22.6875C22.5781 15.25 22.4688 15.209 22.4141 15.1133C22.3457 15.0312 22.332 14.9219 22.373 14.8125L22.7012 13.9102L21.1836 14.375L21.1699 14.4434C20.9922 15.209 20.7051 15.9473 20.2949 16.6172L20.0762 16.9727C19.9121 17.2734 19.5977 17.4375 19.2559 17.4375C18.7363 17.4375 18.3125 17.0137 18.3125 16.4805V15.4688C18.3125 14.9355 18.6543 14.4707 19.1465 14.3203L20.623 13.8555C20.6777 13.4863 20.7188 13.1172 20.7188 12.7344V12.625C20.7188 12.2695 20.418 11.9688 20.0625 11.9688C19.6934 11.9688 19.4062 12.2695 19.4062 12.625V13.1719ZM18.9688 15.4688V16.4805C18.9688 16.6582 19.0918 16.7812 19.2559 16.7812C19.3652 16.7812 19.4609 16.7266 19.5156 16.6445L19.7344 16.2754C20.0488 15.7559 20.2949 15.1953 20.459 14.5938L19.3516 14.9355C19.1191 15.0176 18.9688 15.2227 18.9688 15.4688ZM17.875 16.4805C17.875 16.5078 17.875 16.5352 17.875 16.5625H17.3281C17.1367 16.5625 17 16.4258 17 16.2344C17 16.0566 17.1367 15.9062 17.3281 15.9062H17.875V16.4805ZM20.8281 16.5625C20.9512 16.3574 21.0605 16.1387 21.1562 15.9062H25.4219C25.5996 15.9062 25.75 16.0566 25.75 16.2344C25.75 16.4258 25.5996 16.5625 25.4219 16.5625H20.8281Z" fill="black"/>
</svg>
